<svg width="277" height="96" viewBox="0 0 277 96" fill="none" xmlns="http://www.w3.org/2000/svg">
<g clip-path="url(#clip0_66_433)">
<rect width="277" height="96" rx="48" fill="#1D1B20" fill-opacity="0.1"/>
<g opacity="0.38">
<path d="M60.7333 56.0001L53.1333 48.4001L55.0333 46.5001L60.7333 52.2001L72.9666 39.9668L74.8666 41.8668L60.7333 56.0001Z" fill="#1D1B20"/>
<path d="M107.117 46.9297V48.0078C107.117 49.2891 106.957 50.4375 106.637 51.4531C106.316 52.4688 105.855 53.332 105.254 54.043C104.652 54.7539 103.93 55.2969 103.086 55.6719C102.25 56.0469 101.312 56.2344 100.273 56.2344C99.2656 56.2344 98.3398 56.0469 97.4961 55.6719C96.6602 55.2969 95.9336 54.7539 95.3164 54.043C94.707 53.332 94.2344 52.4688 93.8984 51.4531C93.5625 50.4375 93.3945 49.2891 93.3945 48.0078V46.9297C93.3945 45.6484 93.5586 44.5039 93.8867 43.4961C94.2227 42.4805 94.6953 41.6172 95.3047 40.9062C95.9141 40.1875 96.6367 39.6406 97.4727 39.2656C98.3164 38.8906 99.2422 38.7031 100.25 38.7031C101.289 38.7031 102.227 38.8906 103.062 39.2656C103.906 39.6406 104.629 40.1875 105.23 40.9062C105.84 41.6172 106.305 42.4805 106.625 43.4961C106.953 44.5039 107.117 45.6484 107.117 46.9297ZM104.879 48.0078V46.9062C104.879 45.8906 104.773 44.9922 104.562 44.2109C104.359 43.4297 104.059 42.7734 103.66 42.2422C103.262 41.7109 102.773 41.3086 102.195 41.0352C101.625 40.7617 100.977 40.625 100.25 40.625C99.5469 40.625 98.9102 40.7617 98.3398 41.0352C97.7773 41.3086 97.293 41.7109 96.8867 42.2422C96.4883 42.7734 96.1797 43.4297 95.9609 44.2109C95.7422 44.9922 95.6328 45.8906 95.6328 46.9062V48.0078C95.6328 49.0312 95.7422 49.9375 95.9609 50.7266C96.1797 51.5078 96.4922 52.168 96.8984 52.707C97.3125 53.2383 97.8008 53.6406 98.3633 53.9141C98.9336 54.1875 99.5703 54.3242 100.273 54.3242C101.008 54.3242 101.66 54.1875 102.23 53.9141C102.801 53.6406 103.281 53.2383 103.672 52.707C104.07 52.168 104.371 51.5078 104.574 50.7266C104.777 49.9375 104.879 49.0312 104.879 48.0078ZM115.344 43.3203V56H113.164V43.3203H115.344ZM119.598 43.3203V45.0781H108.992V43.3203H119.598ZM130.18 43.3203V45.1133H123.77V43.3203H130.18ZM124.086 43.3203V56H121.918V43.3203H124.086ZM132.102 43.3203V56H129.922V43.3203H132.102ZM137.75 45.7578V60.875H135.57V43.3203H137.562L137.75 45.7578ZM146.293 49.5547V49.8008C146.293 50.7227 146.184 51.5781 145.965 52.3672C145.746 53.1484 145.426 53.8281 145.004 54.4062C144.59 54.9844 144.078 55.4336 143.469 55.7539C142.859 56.0742 142.16 56.2344 141.371 56.2344C140.566 56.2344 139.855 56.1016 139.238 55.8359C138.621 55.5703 138.098 55.1836 137.668 54.6758C137.238 54.168 136.895 53.5586 136.637 52.8477C136.387 52.1367 136.215 51.3359 136.121 50.4453V49.1328C136.215 48.1953 136.391 47.3555 136.648 46.6133C136.906 45.8711 137.246 45.2383 137.668 44.7148C138.098 44.1836 138.617 43.7812 139.227 43.5078C139.836 43.2266 140.539 43.0859 141.336 43.0859C142.133 43.0859 142.84 43.2422 143.457 43.5547C144.074 43.8594 144.594 44.2969 145.016 44.8672C145.438 45.4375 145.754 46.1211 145.965 46.918C146.184 47.707 146.293 48.5859 146.293 49.5547ZM144.113 49.8008V49.5547C144.113 48.9219 144.047 48.3281 143.914 47.7734C143.781 47.2109 143.574 46.7188 143.293 46.2969C143.02 45.8672 142.668 45.5312 142.238 45.2891C141.809 45.0391 141.297 44.9141 140.703 44.9141C140.156 44.9141 139.68 45.0078 139.273 45.1953C138.875 45.3828 138.535 45.6367 138.254 45.957C137.973 46.2695 137.742 46.6289 137.562 47.0352C137.391 47.4336 137.262 47.8477 137.176 48.2773V51.3125C137.332 51.8594 137.551 52.375 137.832 52.8594C138.113 53.3359 138.488 53.7227 138.957 54.0195C139.426 54.3086 140.016 54.4531 140.727 54.4531C141.312 54.4531 141.816 54.332 142.238 54.0898C142.668 53.8398 143.02 53.5 143.293 53.0703C143.574 52.6406 143.781 52.1484 143.914 51.5938C144.047 51.0312 144.113 50.4336 144.113 49.8008ZM156.535 53.832V47.3047C156.535 46.8047 156.434 46.3711 156.23 46.0039C156.035 45.6289 155.738 45.3398 155.34 45.1367C154.941 44.9336 154.449 44.832 153.863 44.832C153.316 44.832 152.836 44.9258 152.422 45.1133C152.016 45.3008 151.695 45.5469 151.461 45.8516C151.234 46.1562 151.121 46.4844 151.121 46.8359H148.953C148.953 46.3828 149.07 45.9336 149.305 45.4883C149.539 45.043 149.875 44.6406 150.312 44.2812C150.758 43.9141 151.289 43.625 151.906 43.4141C152.531 43.1953 153.227 43.0859 153.992 43.0859C154.914 43.0859 155.727 43.2422 156.43 43.5547C157.141 43.8672 157.695 44.3398 158.094 44.9727C158.5 45.5977 158.703 46.3828 158.703 47.3281V53.2344C158.703 53.6562 158.738 54.1055 158.809 54.582C158.887 55.0586 159 55.4688 159.148 55.8125V56H156.887C156.777 55.75 156.691 55.418 156.629 55.0039C156.566 54.582 156.535 54.1914 156.535 53.832ZM156.91 48.3125L156.934 49.8359H154.742C154.125 49.8359 153.574 49.8867 153.09 49.9883C152.605 50.082 152.199 50.2266 151.871 50.4219C151.543 50.6172 151.293 50.8633 151.121 51.1602C150.949 51.4492 150.863 51.7891 150.863 52.1797C150.863 52.5781 150.953 52.9414 151.133 53.2695C151.312 53.5977 151.582 53.8594 151.941 54.0547C152.309 54.2422 152.758 54.3359 153.289 54.3359C153.953 54.3359 154.539 54.1953 155.047 53.9141C155.555 53.6328 155.957 53.2891 156.254 52.8828C156.559 52.4766 156.723 52.082 156.746 51.6992L157.672 52.7422C157.617 53.0703 157.469 53.4336 157.227 53.832C156.984 54.2305 156.66 54.6133 156.254 54.9805C155.855 55.3398 155.379 55.6406 154.824 55.8828C154.277 56.1172 153.66 56.2344 152.973 56.2344C152.113 56.2344 151.359 56.0664 150.711 55.7305C150.07 55.3945 149.57 54.9453 149.211 54.3828C148.859 53.8125 148.684 53.1758 148.684 52.4727C148.684 51.793 148.816 51.1953 149.082 50.6797C149.348 50.1562 149.73 49.7227 150.23 49.3789C150.73 49.0273 151.332 48.7617 152.035 48.582C152.738 48.4023 153.523 48.3125 154.391 48.3125H156.91ZM168.066 50.4219H163.906L163.883 48.6875H167.281C167.953 48.6875 168.512 48.6211 168.957 48.4883C169.41 48.3555 169.75 48.1562 169.977 47.8906C170.203 47.625 170.316 47.2969 170.316 46.9062C170.316 46.6016 170.25 46.3359 170.117 46.1094C169.992 45.875 169.801 45.6836 169.543 45.5352C169.285 45.3789 168.965 45.2656 168.582 45.1953C168.207 45.1172 167.766 45.0781 167.258 45.0781H164.48V56H162.312V43.3203H167.258C168.062 43.3203 168.785 43.3906 169.426 43.5312C170.074 43.6719 170.625 43.8867 171.078 44.1758C171.539 44.457 171.891 44.8164 172.133 45.2539C172.375 45.6914 172.496 46.207 172.496 46.8008C172.496 47.1836 172.418 47.5469 172.262 47.8906C172.105 48.2344 171.875 48.5391 171.57 48.8047C171.266 49.0703 170.891 49.2891 170.445 49.4609C170 49.625 169.488 49.7305 168.91 49.7773L168.066 50.4219ZM168.066 56H163.121L164.199 54.2422H168.066C168.668 54.2422 169.168 54.168 169.566 54.0195C169.965 53.8633 170.262 53.6445 170.457 53.3633C170.66 53.0742 170.762 52.7305 170.762 52.332C170.762 51.9336 170.66 51.5938 170.457 51.3125C170.262 51.0234 169.965 50.8047 169.566 50.6562C169.168 50.5 168.668 50.4219 168.066 50.4219H164.773L164.797 48.6875H168.91L169.695 49.3438C170.391 49.3984 170.98 49.5703 171.465 49.8594C171.949 50.1484 172.316 50.5156 172.566 50.9609C172.816 51.3984 172.941 51.875 172.941 52.3906C172.941 52.9844 172.828 53.5078 172.602 53.9609C172.383 54.4141 172.062 54.793 171.641 55.0977C171.219 55.3945 170.707 55.6211 170.105 55.7773C169.504 55.9258 168.824 56 168.066 56ZM184.32 43.3203V45.1133H178.191V43.3203H184.32ZM186.23 43.3203V56H184.062V43.3203H186.23ZM177.664 43.3203H179.844L179.516 49.4375C179.461 50.3828 179.371 51.2188 179.246 51.9453C179.129 52.6641 178.965 53.2812 178.754 53.7969C178.551 54.3125 178.293 54.7344 177.98 55.0625C177.676 55.3828 177.309 55.6211 176.879 55.7773C176.449 55.9258 175.953 56 175.391 56H174.711V54.0898L175.18 54.0547C175.516 54.0312 175.801 53.9531 176.035 53.8203C176.277 53.6875 176.48 53.4922 176.645 53.2344C176.809 52.9688 176.941 52.6289 177.043 52.2148C177.152 51.8008 177.234 51.3086 177.289 50.7383C177.352 50.168 177.398 49.5039 177.43 48.7461L177.664 43.3203ZM194.984 56.2344C194.102 56.2344 193.301 56.0859 192.582 55.7891C191.871 55.4844 191.258 55.0586 190.742 54.5117C190.234 53.9648 189.844 53.3164 189.57 52.5664C189.297 51.8164 189.16 50.9961 189.16 50.1055V49.6133C189.16 48.582 189.312 47.6641 189.617 46.8594C189.922 46.0469 190.336 45.3594 190.859 44.7969C191.383 44.2344 191.977 43.8086 192.641 43.5195C193.305 43.2305 193.992 43.0859 194.703 43.0859C195.609 43.0859 196.391 43.2422 197.047 43.5547C197.711 43.8672 198.254 44.3047 198.676 44.8672C199.098 45.4219 199.41 46.0781 199.613 46.8359C199.816 47.5859 199.918 48.4062 199.918 49.2969V50.2695H190.449V48.5H197.75V48.3359C197.719 47.7734 197.602 47.2266 197.398 46.6953C197.203 46.1641 196.891 45.7266 196.461 45.3828C196.031 45.0391 195.445 44.8672 194.703 44.8672C194.211 44.8672 193.758 44.9727 193.344 45.1836C192.93 45.3867 192.574 45.6914 192.277 46.0977C191.98 46.5039 191.75 47 191.586 47.5859C191.422 48.1719 191.34 48.8477 191.34 49.6133V50.1055C191.34 50.707 191.422 51.2734 191.586 51.8047C191.758 52.3281 192.004 52.7891 192.324 53.1875C192.652 53.5859 193.047 53.8984 193.508 54.125C193.977 54.3516 194.508 54.4648 195.102 54.4648C195.867 54.4648 196.516 54.3086 197.047 53.9961C197.578 53.6836 198.043 53.2656 198.441 52.7422L199.754 53.7852C199.48 54.1992 199.133 54.5938 198.711 54.9688C198.289 55.3438 197.77 55.6484 197.152 55.8828C196.543 56.1172 195.82 56.2344 194.984 56.2344ZM211.051 48.8164V50.5742H204.348V48.8164H211.051ZM204.805 43.3203V56H202.637V43.3203H204.805ZM212.809 43.3203V56H210.629V43.3203H212.809ZM215.727 49.8008V49.5312C215.727 48.6172 215.859 47.7695 216.125 46.9883C216.391 46.1992 216.773 45.5156 217.273 44.9375C217.773 44.3516 218.379 43.8984 219.09 43.5781C219.801 43.25 220.598 43.0859 221.48 43.0859C222.371 43.0859 223.172 43.25 223.883 43.5781C224.602 43.8984 225.211 44.3516 225.711 44.9375C226.219 45.5156 226.605 46.1992 226.871 46.9883C227.137 47.7695 227.27 48.6172 227.27 49.5312V49.8008C227.27 50.7148 227.137 51.5625 226.871 52.3438C226.605 53.125 226.219 53.8086 225.711 54.3945C225.211 54.9727 224.605 55.4258 223.895 55.7539C223.191 56.0742 222.395 56.2344 221.504 56.2344C220.613 56.2344 219.812 56.0742 219.102 55.7539C218.391 55.4258 217.781 54.9727 217.273 54.3945C216.773 53.8086 216.391 53.125 216.125 52.3438C215.859 51.5625 215.727 50.7148 215.727 49.8008ZM217.895 49.5312V49.8008C217.895 50.4336 217.969 51.0312 218.117 51.5938C218.266 52.1484 218.488 52.6406 218.785 53.0703C219.09 53.5 219.469 53.8398 219.922 54.0898C220.375 54.332 220.902 54.4531 221.504 54.4531C222.098 54.4531 222.617 54.332 223.062 54.0898C223.516 53.8398 223.891 53.5 224.188 53.0703C224.484 52.6406 224.707 52.1484 224.855 51.5938C225.012 51.0312 225.09 50.4336 225.09 49.8008V49.5312C225.09 48.9062 225.012 48.3164 224.855 47.7617C224.707 47.1992 224.48 46.7031 224.176 46.2734C223.879 45.8359 223.504 45.4922 223.051 45.2422C222.605 44.9922 222.082 44.8672 221.48 44.8672C220.887 44.8672 220.363 44.9922 219.91 45.2422C219.465 45.4922 219.09 45.8359 218.785 46.2734C218.488 46.7031 218.266 47.1992 218.117 47.7617C217.969 48.3164 217.895 48.9062 217.895 49.5312Z" fill="#1D1B20"/>
</g>
</g>
<defs>
<clipPath id="clip0_66_433">
<rect width="277" height="96" rx="48" fill="white"/>
</clipPath>
</defs>
</svg>
