<svg width="59" height="59" viewBox="0 0 59 59" fill="none" xmlns="http://www.w3.org/2000/svg">
<g clip-path="url(#clip0_55_11)">
<path d="M34.5703 48.7124C31.9301 49.4198 29.2989 49.5813 26.6767 49.1969C24.0545 48.8124 21.631 47.9779 19.406 46.6934C17.181 45.4088 15.2466 43.7272 13.6025 41.6485C11.9585 39.5698 10.7828 37.2104 10.0754 34.5702C9.3593 31.8978 9.19564 29.2586 9.58438 26.6525C9.97313 24.0464 10.8098 21.6309 12.0944 19.406C13.3789 17.181 15.0606 15.2465 17.1392 13.6025C19.2179 11.9585 21.5773 10.7828 24.2175 10.0753C26.8899 9.35926 29.5291 9.1956 32.1352 9.58434C34.7413 9.97309 37.1568 10.8097 39.3818 12.0943C41.6067 13.3789 43.539 15.0525 45.1787 17.115C46.8184 19.1776 47.9963 21.5451 48.7124 24.2175C49.4198 26.8577 49.5813 29.4888 49.1969 32.111C48.8125 34.7332 47.978 37.1568 46.6934 39.3817C45.4088 41.6067 43.7353 43.539 41.6727 45.1787C39.6101 46.8184 37.2427 47.9963 34.5703 48.7124ZM33.5091 44.7521C34.0357 43.3686 34.4366 41.9671 34.7119 40.5475C34.9872 39.1279 35.1282 37.658 35.135 36.1377L27.7939 38.1048C28.5599 39.4179 29.417 40.6204 30.3652 41.7122C31.3134 42.804 32.3614 43.8173 33.5091 44.7521ZM28.2792 45.3252C27.415 44.418 26.6124 43.4511 25.8714 42.4245C25.1305 41.398 24.4512 40.3118 23.8336 39.1659L18.1347 40.693C19.4998 42.0526 21.0422 43.1405 22.762 43.9565C24.4818 44.7725 26.3209 45.2288 28.2792 45.3252ZM38.3249 42.6335C39.9726 41.5708 41.3372 40.2561 42.4186 38.6895C43.5 37.1229 44.2918 35.4096 44.7942 33.5495L39.0952 35.0766C39.1333 36.3777 39.0881 37.6581 38.9597 38.9175C38.8313 40.177 38.6197 41.4157 38.3249 42.6335ZM15.4573 37.2692L22.0256 35.5093C21.7565 34.8912 21.5136 34.2747 21.2971 33.6598C21.0806 33.0449 20.8817 32.3994 20.7006 31.7232C20.5194 31.0471 20.3688 30.3886 20.2489 29.7478C20.129 29.107 20.031 28.4517 19.9551 27.7819L13.3868 29.5418C13.3983 30.2289 13.448 30.8972 13.5357 31.5466C13.6234 32.196 13.7579 32.8588 13.9391 33.5349C14.1202 34.2111 14.3352 34.8523 14.5839 35.4586C14.8326 36.0649 15.1238 36.6684 15.4573 37.2692ZM25.8893 34.474L34.969 32.0411C34.8931 31.3713 34.7951 30.716 34.6752 30.0752C34.5552 29.4344 34.4047 28.7759 34.2235 28.0997C34.0423 27.4236 33.8435 26.7781 33.627 26.1632C33.4104 25.5483 33.1676 24.9318 32.8985 24.3137L23.8188 26.7466C23.8947 27.4164 23.9927 28.0717 24.1126 28.7125C24.2325 29.3533 24.3831 30.0118 24.5643 30.6879C24.7454 31.3641 24.9443 32.0096 25.1608 32.6245C25.3773 33.2394 25.6202 33.8559 25.8893 34.474ZM38.8327 31.0058L45.401 29.2459C45.3895 28.5588 45.3398 27.8905 45.2521 27.2411C45.1643 26.5917 45.0299 25.9289 44.8487 25.2527C44.6675 24.5766 44.4526 23.9354 44.2038 23.3291C43.9551 22.7228 43.664 22.1193 43.3305 21.5184L36.7622 23.2784C37.0313 23.8965 37.2741 24.513 37.4907 25.1279C37.7072 25.7428 37.906 26.3883 38.0872 27.0645C38.2684 27.7406 38.4189 28.3991 38.5389 29.0399C38.6588 29.6807 38.7568 30.336 38.8327 31.0058ZM34.9541 19.6218L40.6531 18.0947C39.288 16.7351 37.7456 15.6472 36.0258 14.8312C34.306 14.0152 32.4669 13.5589 30.5085 13.4625C31.3728 14.3697 32.1754 15.3366 32.9163 16.3632C33.6573 17.3897 34.3365 18.4759 34.9541 19.6218ZM23.6528 22.65L30.9939 20.6829C30.2279 19.3698 29.3708 18.1673 28.4226 17.0755C27.4743 15.9837 26.4264 14.9704 25.2787 14.0356C24.7521 15.419 24.3512 16.8206 24.0759 18.2402C23.8006 19.6598 23.6596 21.1297 23.6528 22.65ZM13.9936 25.2381L19.6925 23.7111C19.6545 22.41 19.6996 21.1296 19.828 19.8702C19.9564 18.6107 20.168 17.372 20.4629 16.1542C18.8151 17.2169 17.4506 18.5315 16.3692 20.0981C15.2878 21.6647 14.4959 23.3781 13.9936 25.2381Z" fill="#EADDFF"/>
</g>
<defs>
<clipPath id="clip0_55_11">
<rect width="48" height="48" fill="white" transform="translate(0 12.4233) rotate(-15)"/>
</clipPath>
</defs>
</svg>
