<svg width="786" height="339" viewBox="0 0 786 339" fill="none" xmlns="http://www.w3.org/2000/svg">
<path d="M40 42C40 40.8954 40.8954 40 42 40H744C745.105 40 746 40.8954 746 42V297C746 298.105 745.105 299 744 299H42C40.8955 299 40 298.105 40 297V42Z" fill="white"/>
<path d="M42 40V41H744V40V39H42V40ZM746 42H745V297H746H747V42H746ZM744 299V298H42V299V300H744V299ZM40 297H41V42H40H39V297H40ZM42 299V298C41.4477 298 41 297.552 41 297H40H39C39 298.657 40.3432 300 42 300V299ZM746 297H745C745 297.552 744.552 298 744 298V299V300C745.657 300 747 298.657 747 297H746ZM744 40V41C744.552 41 745 41.4477 745 42H746H747C747 40.3431 745.657 39 744 39V40ZM42 40V39C40.3431 39 39 40.3432 39 42H40H41C41 41.4477 41.4477 41 42 41V40Z" fill="black" fill-opacity="0.1"/>
<rect x="105.5" y="94.5" width="575" height="151" rx="3.5" stroke="#79747E"/>
<path d="M126.523 115.625V127H125.039V115.625H126.523ZM130.18 115.625V116.859H121.391V115.625H130.18ZM134.891 127.156C134.302 127.156 133.768 127.057 133.289 126.859C132.815 126.656 132.406 126.372 132.062 126.008C131.724 125.643 131.464 125.211 131.281 124.711C131.099 124.211 131.008 123.664 131.008 123.07V122.742C131.008 122.055 131.109 121.443 131.312 120.906C131.516 120.365 131.792 119.906 132.141 119.531C132.49 119.156 132.885 118.872 133.328 118.68C133.771 118.487 134.229 118.391 134.703 118.391C135.307 118.391 135.828 118.495 136.266 118.703C136.708 118.911 137.07 119.203 137.352 119.578C137.633 119.948 137.841 120.385 137.977 120.891C138.112 121.391 138.18 121.938 138.18 122.531V123.18H131.867V122H136.734V121.891C136.714 121.516 136.635 121.151 136.5 120.797C136.37 120.443 136.161 120.151 135.875 119.922C135.589 119.693 135.198 119.578 134.703 119.578C134.375 119.578 134.073 119.648 133.797 119.789C133.521 119.924 133.284 120.128 133.086 120.398C132.888 120.669 132.734 121 132.625 121.391C132.516 121.781 132.461 122.232 132.461 122.742V123.07C132.461 123.471 132.516 123.849 132.625 124.203C132.74 124.552 132.904 124.859 133.117 125.125C133.336 125.391 133.599 125.599 133.906 125.75C134.219 125.901 134.573 125.977 134.969 125.977C135.479 125.977 135.911 125.872 136.266 125.664C136.62 125.456 136.93 125.177 137.195 124.828L138.07 125.523C137.888 125.799 137.656 126.062 137.375 126.312C137.094 126.562 136.747 126.766 136.336 126.922C135.93 127.078 135.448 127.156 134.891 127.156ZM141.938 118.547V127H140.492V118.547H141.938ZM147.484 118.547L143.477 123.391H141.453L141.234 122.125H142.891L145.727 118.547H147.484ZM145.93 127L142.82 123.172L143.75 122.125L147.766 127H145.93ZM152.781 125.969C153.125 125.969 153.443 125.898 153.734 125.758C154.026 125.617 154.266 125.424 154.453 125.18C154.641 124.93 154.747 124.646 154.773 124.328H156.148C156.122 124.828 155.953 125.294 155.641 125.727C155.333 126.154 154.93 126.5 154.43 126.766C153.93 127.026 153.38 127.156 152.781 127.156C152.146 127.156 151.591 127.044 151.117 126.82C150.648 126.596 150.258 126.289 149.945 125.898C149.638 125.508 149.406 125.06 149.25 124.555C149.099 124.044 149.023 123.505 149.023 122.938V122.609C149.023 122.042 149.099 121.505 149.25 121C149.406 120.49 149.638 120.039 149.945 119.648C150.258 119.258 150.648 118.951 151.117 118.727C151.591 118.503 152.146 118.391 152.781 118.391C153.443 118.391 154.021 118.526 154.516 118.797C155.01 119.062 155.398 119.427 155.68 119.891C155.966 120.349 156.122 120.87 156.148 121.453H154.773C154.747 121.104 154.648 120.789 154.477 120.508C154.31 120.227 154.081 120.003 153.789 119.836C153.503 119.664 153.167 119.578 152.781 119.578C152.339 119.578 151.966 119.667 151.664 119.844C151.367 120.016 151.13 120.25 150.953 120.547C150.781 120.839 150.656 121.164 150.578 121.523C150.505 121.878 150.469 122.24 150.469 122.609V122.938C150.469 123.307 150.505 123.672 150.578 124.031C150.651 124.391 150.773 124.716 150.945 125.008C151.122 125.299 151.359 125.534 151.656 125.711C151.958 125.883 152.333 125.969 152.781 125.969ZM161.719 118.547V127H160.266V118.547H161.719ZM164.555 118.547V119.719H157.484V118.547H164.555ZM174.328 125.969C174.672 125.969 174.99 125.898 175.281 125.758C175.573 125.617 175.812 125.424 176 125.18C176.188 124.93 176.294 124.646 176.32 124.328H177.695C177.669 124.828 177.5 125.294 177.188 125.727C176.88 126.154 176.477 126.5 175.977 126.766C175.477 127.026 174.927 127.156 174.328 127.156C173.693 127.156 173.138 127.044 172.664 126.82C172.195 126.596 171.805 126.289 171.492 125.898C171.185 125.508 170.953 125.06 170.797 124.555C170.646 124.044 170.57 123.505 170.57 122.938V122.609C170.57 122.042 170.646 121.505 170.797 121C170.953 120.49 171.185 120.039 171.492 119.648C171.805 119.258 172.195 118.951 172.664 118.727C173.138 118.503 173.693 118.391 174.328 118.391C174.99 118.391 175.568 118.526 176.062 118.797C176.557 119.062 176.945 119.427 177.227 119.891C177.513 120.349 177.669 120.87 177.695 121.453H176.32C176.294 121.104 176.195 120.789 176.023 120.508C175.857 120.227 175.628 120.003 175.336 119.836C175.049 119.664 174.714 119.578 174.328 119.578C173.885 119.578 173.513 119.667 173.211 119.844C172.914 120.016 172.677 120.25 172.5 120.547C172.328 120.839 172.203 121.164 172.125 121.523C172.052 121.878 172.016 122.24 172.016 122.609V122.938C172.016 123.307 172.052 123.672 172.125 124.031C172.198 124.391 172.32 124.716 172.492 125.008C172.669 125.299 172.906 125.534 173.203 125.711C173.505 125.883 173.88 125.969 174.328 125.969ZM179.438 122.867V122.688C179.438 122.078 179.526 121.513 179.703 120.992C179.88 120.466 180.135 120.01 180.469 119.625C180.802 119.234 181.206 118.932 181.68 118.719C182.154 118.5 182.685 118.391 183.273 118.391C183.867 118.391 184.401 118.5 184.875 118.719C185.354 118.932 185.76 119.234 186.094 119.625C186.432 120.01 186.69 120.466 186.867 120.992C187.044 121.513 187.133 122.078 187.133 122.688V122.867C187.133 123.477 187.044 124.042 186.867 124.562C186.69 125.083 186.432 125.539 186.094 125.93C185.76 126.315 185.357 126.617 184.883 126.836C184.414 127.049 183.883 127.156 183.289 127.156C182.695 127.156 182.161 127.049 181.688 126.836C181.214 126.617 180.807 126.315 180.469 125.93C180.135 125.539 179.88 125.083 179.703 124.562C179.526 124.042 179.438 123.477 179.438 122.867ZM180.883 122.688V122.867C180.883 123.289 180.932 123.688 181.031 124.062C181.13 124.432 181.279 124.76 181.477 125.047C181.68 125.333 181.932 125.56 182.234 125.727C182.536 125.888 182.888 125.969 183.289 125.969C183.685 125.969 184.031 125.888 184.328 125.727C184.63 125.56 184.88 125.333 185.078 125.047C185.276 124.76 185.424 124.432 185.523 124.062C185.628 123.688 185.68 123.289 185.68 122.867V122.688C185.68 122.271 185.628 121.878 185.523 121.508C185.424 121.133 185.273 120.802 185.07 120.516C184.872 120.224 184.622 119.995 184.32 119.828C184.023 119.661 183.674 119.578 183.273 119.578C182.878 119.578 182.529 119.661 182.227 119.828C181.93 119.995 181.68 120.224 181.477 120.516C181.279 120.802 181.13 121.133 181.031 121.508C180.932 121.878 180.883 122.271 180.883 122.688ZM189.062 122.867V122.688C189.062 122.078 189.151 121.513 189.328 120.992C189.505 120.466 189.76 120.01 190.094 119.625C190.427 119.234 190.831 118.932 191.305 118.719C191.779 118.5 192.31 118.391 192.898 118.391C193.492 118.391 194.026 118.5 194.5 118.719C194.979 118.932 195.385 119.234 195.719 119.625C196.057 120.01 196.315 120.466 196.492 120.992C196.669 121.513 196.758 122.078 196.758 122.688V122.867C196.758 123.477 196.669 124.042 196.492 124.562C196.315 125.083 196.057 125.539 195.719 125.93C195.385 126.315 194.982 126.617 194.508 126.836C194.039 127.049 193.508 127.156 192.914 127.156C192.32 127.156 191.786 127.049 191.312 126.836C190.839 126.617 190.432 126.315 190.094 125.93C189.76 125.539 189.505 125.083 189.328 124.562C189.151 124.042 189.062 123.477 189.062 122.867ZM190.508 122.688V122.867C190.508 123.289 190.557 123.688 190.656 124.062C190.755 124.432 190.904 124.76 191.102 125.047C191.305 125.333 191.557 125.56 191.859 125.727C192.161 125.888 192.513 125.969 192.914 125.969C193.31 125.969 193.656 125.888 193.953 125.727C194.255 125.56 194.505 125.333 194.703 125.047C194.901 124.76 195.049 124.432 195.148 124.062C195.253 123.688 195.305 123.289 195.305 122.867V122.688C195.305 122.271 195.253 121.878 195.148 121.508C195.049 121.133 194.898 120.802 194.695 120.516C194.497 120.224 194.247 119.995 193.945 119.828C193.648 119.661 193.299 119.578 192.898 119.578C192.503 119.578 192.154 119.661 191.852 119.828C191.555 119.995 191.305 120.224 191.102 120.516C190.904 120.802 190.755 121.133 190.656 121.508C190.557 121.878 190.508 122.271 190.508 122.688ZM204.492 114.867H205.68C205.68 115.378 205.602 115.784 205.445 116.086C205.289 116.383 205.076 116.612 204.805 116.773C204.539 116.935 204.237 117.057 203.898 117.141C203.565 117.224 203.219 117.305 202.859 117.383C202.411 117.477 201.995 117.625 201.609 117.828C201.229 118.026 200.901 118.307 200.625 118.672C200.354 119.036 200.154 119.51 200.023 120.094C199.898 120.677 199.865 121.398 199.922 122.258V122.977H198.734V122.258C198.734 121.294 198.826 120.453 199.008 119.734C199.195 119.016 199.458 118.409 199.797 117.914C200.135 117.419 200.536 117.026 201 116.734C201.469 116.443 201.984 116.242 202.547 116.133C202.953 116.055 203.302 115.971 203.594 115.883C203.885 115.789 204.107 115.664 204.258 115.508C204.414 115.352 204.492 115.138 204.492 114.867ZM202.781 119.031C203.333 119.031 203.826 119.128 204.258 119.32C204.69 119.513 205.057 119.781 205.359 120.125C205.661 120.469 205.891 120.875 206.047 121.344C206.208 121.807 206.289 122.312 206.289 122.859V123.031C206.289 123.62 206.203 124.167 206.031 124.672C205.865 125.172 205.617 125.609 205.289 125.984C204.966 126.354 204.57 126.643 204.102 126.852C203.638 127.06 203.109 127.164 202.516 127.164C201.922 127.164 201.391 127.06 200.922 126.852C200.458 126.643 200.062 126.354 199.734 125.984C199.406 125.609 199.156 125.172 198.984 124.672C198.818 124.167 198.734 123.62 198.734 123.031V122.859C198.734 122.729 198.758 122.602 198.805 122.477C198.852 122.352 198.909 122.224 198.977 122.094C199.049 121.964 199.115 121.826 199.172 121.68C199.365 121.211 199.628 120.776 199.961 120.375C200.299 119.974 200.703 119.651 201.172 119.406C201.646 119.156 202.182 119.031 202.781 119.031ZM202.5 120.211C201.969 120.211 201.531 120.333 201.188 120.578C200.849 120.823 200.596 121.148 200.43 121.555C200.263 121.956 200.18 122.391 200.18 122.859V123.031C200.18 123.427 200.227 123.802 200.32 124.156C200.414 124.51 200.555 124.826 200.742 125.102C200.935 125.372 201.177 125.586 201.469 125.742C201.766 125.898 202.115 125.977 202.516 125.977C202.917 125.977 203.263 125.898 203.555 125.742C203.846 125.586 204.086 125.372 204.273 125.102C204.461 124.826 204.602 124.51 204.695 124.156C204.789 123.802 204.836 123.427 204.836 123.031V122.859C204.836 122.505 204.789 122.169 204.695 121.852C204.602 121.534 204.458 121.253 204.266 121.008C204.078 120.763 203.836 120.57 203.539 120.43C203.247 120.284 202.901 120.211 202.5 120.211ZM210.867 123.32L207.664 118.547H209.406L211.594 122.047H213.281L213.07 123.32H210.867ZM211.656 123.172L209.203 127H207.375L210.742 122.125L211.656 123.172ZM214.023 118.547V127H212.578V118.547H214.023ZM218.953 118.547L215.75 123.32H213.547L213.32 122.047H215.016L217.203 118.547H218.953ZM217.406 127L214.945 123.172L215.875 122.125L219.234 127H217.406ZM224.422 127.156C223.833 127.156 223.299 127.057 222.82 126.859C222.346 126.656 221.938 126.372 221.594 126.008C221.255 125.643 220.995 125.211 220.812 124.711C220.63 124.211 220.539 123.664 220.539 123.07V122.742C220.539 122.055 220.641 121.443 220.844 120.906C221.047 120.365 221.323 119.906 221.672 119.531C222.021 119.156 222.417 118.872 222.859 118.68C223.302 118.487 223.76 118.391 224.234 118.391C224.839 118.391 225.359 118.495 225.797 118.703C226.24 118.911 226.602 119.203 226.883 119.578C227.164 119.948 227.372 120.385 227.508 120.891C227.643 121.391 227.711 121.938 227.711 122.531V123.18H221.398V122H226.266V121.891C226.245 121.516 226.167 121.151 226.031 120.797C225.901 120.443 225.693 120.151 225.406 119.922C225.12 119.693 224.729 119.578 224.234 119.578C223.906 119.578 223.604 119.648 223.328 119.789C223.052 119.924 222.815 120.128 222.617 120.398C222.419 120.669 222.266 121 222.156 121.391C222.047 121.781 221.992 122.232 221.992 122.742V123.07C221.992 123.471 222.047 123.849 222.156 124.203C222.271 124.552 222.435 124.859 222.648 125.125C222.867 125.391 223.13 125.599 223.438 125.75C223.75 125.901 224.104 125.977 224.5 125.977C225.01 125.977 225.443 125.872 225.797 125.664C226.151 125.456 226.461 125.177 226.727 124.828L227.602 125.523C227.419 125.799 227.188 126.062 226.906 126.312C226.625 126.562 226.279 126.766 225.867 126.922C225.461 127.078 224.979 127.156 224.422 127.156ZM235.633 122.211V123.383H231.164V122.211H235.633ZM231.469 118.547V127H230.023V118.547H231.469ZM236.805 118.547V127H235.352V118.547H236.805ZM241.195 124.711L245.094 118.547H246.547V127H245.094V120.836L241.195 127H239.758V118.547H241.195V124.711ZM251.078 122.969H252.641L250.195 127H248.633L251.078 122.969ZM252.289 118.547H255.82V127H254.375V119.719H252.289C251.878 119.719 251.542 119.789 251.281 119.93C251.021 120.065 250.831 120.242 250.711 120.461C250.591 120.68 250.531 120.906 250.531 121.141C250.531 121.37 250.586 121.591 250.695 121.805C250.805 122.013 250.977 122.185 251.211 122.32C251.445 122.456 251.747 122.523 252.117 122.523H254.766V123.711H252.117C251.633 123.711 251.203 123.646 250.828 123.516C250.453 123.385 250.135 123.206 249.875 122.977C249.615 122.742 249.417 122.469 249.281 122.156C249.146 121.839 249.078 121.495 249.078 121.125C249.078 120.755 249.148 120.414 249.289 120.102C249.435 119.789 249.643 119.516 249.914 119.281C250.19 119.047 250.526 118.867 250.922 118.742C251.323 118.612 251.779 118.547 252.289 118.547Z" fill="#49454F"/>
<path d="M629.023 123.172V124.359H620.805V123.508L625.898 115.625H627.078L625.812 117.906L622.445 123.172H629.023ZM627.438 115.625V127H625.992V115.625H627.438ZM636.023 115.625L631.281 127.977H630.039L634.789 115.625H636.023ZM639.773 121.586L638.617 121.289L639.188 115.625H645.023V116.961H640.414L640.07 120.055C640.279 119.935 640.542 119.823 640.859 119.719C641.182 119.615 641.552 119.562 641.969 119.562C642.495 119.562 642.966 119.654 643.383 119.836C643.799 120.013 644.154 120.268 644.445 120.602C644.742 120.935 644.969 121.336 645.125 121.805C645.281 122.273 645.359 122.797 645.359 123.375C645.359 123.922 645.284 124.424 645.133 124.883C644.987 125.341 644.766 125.742 644.469 126.086C644.172 126.424 643.797 126.688 643.344 126.875C642.896 127.062 642.367 127.156 641.758 127.156C641.299 127.156 640.865 127.094 640.453 126.969C640.047 126.839 639.682 126.643 639.359 126.383C639.042 126.117 638.781 125.789 638.578 125.398C638.38 125.003 638.255 124.539 638.203 124.008H639.578C639.641 124.435 639.766 124.794 639.953 125.086C640.141 125.378 640.385 125.599 640.688 125.75C640.995 125.896 641.352 125.969 641.758 125.969C642.102 125.969 642.406 125.909 642.672 125.789C642.938 125.669 643.161 125.497 643.344 125.273C643.526 125.049 643.664 124.779 643.758 124.461C643.857 124.143 643.906 123.786 643.906 123.391C643.906 123.031 643.857 122.698 643.758 122.391C643.659 122.083 643.51 121.815 643.312 121.586C643.12 121.357 642.883 121.18 642.602 121.055C642.32 120.924 641.997 120.859 641.633 120.859C641.148 120.859 640.781 120.924 640.531 121.055C640.286 121.185 640.034 121.362 639.773 121.586ZM654.586 120.406V122.141C654.586 123.073 654.503 123.859 654.336 124.5C654.169 125.141 653.93 125.656 653.617 126.047C653.305 126.438 652.927 126.721 652.484 126.898C652.047 127.07 651.552 127.156 651 127.156C650.562 127.156 650.159 127.102 649.789 126.992C649.419 126.883 649.086 126.708 648.789 126.469C648.497 126.224 648.247 125.906 648.039 125.516C647.831 125.125 647.672 124.651 647.562 124.094C647.453 123.536 647.398 122.885 647.398 122.141V120.406C647.398 119.474 647.482 118.693 647.648 118.062C647.82 117.432 648.062 116.927 648.375 116.547C648.688 116.161 649.062 115.885 649.5 115.719C649.943 115.552 650.438 115.469 650.984 115.469C651.427 115.469 651.833 115.523 652.203 115.633C652.578 115.737 652.911 115.906 653.203 116.141C653.495 116.37 653.742 116.677 653.945 117.062C654.154 117.443 654.312 117.909 654.422 118.461C654.531 119.013 654.586 119.661 654.586 120.406ZM653.133 122.375V120.164C653.133 119.654 653.102 119.206 653.039 118.82C652.982 118.43 652.896 118.096 652.781 117.82C652.667 117.544 652.521 117.32 652.344 117.148C652.172 116.977 651.971 116.852 651.742 116.773C651.518 116.69 651.266 116.648 650.984 116.648C650.641 116.648 650.336 116.714 650.07 116.844C649.805 116.969 649.581 117.169 649.398 117.445C649.221 117.721 649.086 118.083 648.992 118.531C648.898 118.979 648.852 119.523 648.852 120.164V122.375C648.852 122.885 648.88 123.336 648.938 123.727C649 124.117 649.091 124.456 649.211 124.742C649.331 125.023 649.477 125.255 649.648 125.438C649.82 125.62 650.018 125.755 650.242 125.844C650.471 125.927 650.724 125.969 651 125.969C651.354 125.969 651.664 125.901 651.93 125.766C652.195 125.63 652.417 125.419 652.594 125.133C652.776 124.841 652.911 124.469 653 124.016C653.089 123.557 653.133 123.01 653.133 122.375ZM664.086 120.406V122.141C664.086 123.073 664.003 123.859 663.836 124.5C663.669 125.141 663.43 125.656 663.117 126.047C662.805 126.438 662.427 126.721 661.984 126.898C661.547 127.07 661.052 127.156 660.5 127.156C660.062 127.156 659.659 127.102 659.289 126.992C658.919 126.883 658.586 126.708 658.289 126.469C657.997 126.224 657.747 125.906 657.539 125.516C657.331 125.125 657.172 124.651 657.062 124.094C656.953 123.536 656.898 122.885 656.898 122.141V120.406C656.898 119.474 656.982 118.693 657.148 118.062C657.32 117.432 657.562 116.927 657.875 116.547C658.188 116.161 658.562 115.885 659 115.719C659.443 115.552 659.938 115.469 660.484 115.469C660.927 115.469 661.333 115.523 661.703 115.633C662.078 115.737 662.411 115.906 662.703 116.141C662.995 116.37 663.242 116.677 663.445 117.062C663.654 117.443 663.812 117.909 663.922 118.461C664.031 119.013 664.086 119.661 664.086 120.406ZM662.633 122.375V120.164C662.633 119.654 662.602 119.206 662.539 118.82C662.482 118.43 662.396 118.096 662.281 117.82C662.167 117.544 662.021 117.32 661.844 117.148C661.672 116.977 661.471 116.852 661.242 116.773C661.018 116.69 660.766 116.648 660.484 116.648C660.141 116.648 659.836 116.714 659.57 116.844C659.305 116.969 659.081 117.169 658.898 117.445C658.721 117.721 658.586 118.083 658.492 118.531C658.398 118.979 658.352 119.523 658.352 120.164V122.375C658.352 122.885 658.38 123.336 658.438 123.727C658.5 124.117 658.591 124.456 658.711 124.742C658.831 125.023 658.977 125.255 659.148 125.438C659.32 125.62 659.518 125.755 659.742 125.844C659.971 125.927 660.224 125.969 660.5 125.969C660.854 125.969 661.164 125.901 661.43 125.766C661.695 125.63 661.917 125.419 662.094 125.133C662.276 124.841 662.411 124.469 662.5 124.016C662.589 123.557 662.633 123.01 662.633 122.375Z" fill="#CCC2DC"/>
<rect x="40" y="4" width="59.375" height="30" rx="3" fill="white"/>
<rect x="40.5" y="4.5" width="58.375" height="29" rx="2.5" stroke="black" stroke-opacity="0.2"/>
<path d="M51.3438 16C51.2969 15.6042 51.1068 15.2969 50.7734 15.0781C50.4401 14.8594 50.0313 14.75 49.5469 14.75C49.1927 14.75 48.8828 14.8073 48.6172 14.9219C48.3542 15.0365 48.1484 15.194 48 15.3945C47.8542 15.5951 47.7813 15.8229 47.7813 16.0781C47.7813 16.2917 47.832 16.4753 47.9336 16.6289C48.0378 16.7799 48.1706 16.9062 48.332 17.0078C48.4935 17.1068 48.6628 17.1888 48.8398 17.2539C49.0169 17.3164 49.1797 17.3672 49.3281 17.4062L50.1406 17.625C50.349 17.6797 50.5807 17.7552 50.8359 17.8516C51.0938 17.9479 51.3398 18.0794 51.5742 18.2461C51.8112 18.4102 52.0065 18.6211 52.1602 18.8789C52.3138 19.1367 52.3906 19.4531 52.3906 19.8281C52.3906 20.2604 52.2773 20.651 52.0508 21C51.8268 21.349 51.4987 21.6263 51.0664 21.832C50.6367 22.0378 50.1146 22.1406 49.5 22.1406C48.9271 22.1406 48.431 22.0482 48.0117 21.8633C47.5951 21.6784 47.2669 21.4206 47.0273 21.0898C46.7904 20.7591 46.6563 20.375 46.625 19.9375H47.625C47.651 20.2396 47.7526 20.4896 47.9297 20.6875C48.1094 20.8828 48.3359 21.0286 48.6094 21.125C48.8854 21.2187 49.1823 21.2656 49.5 21.2656C49.8698 21.2656 50.2018 21.2057 50.4961 21.0859C50.7904 20.9635 51.0234 20.7943 51.1953 20.5781C51.3672 20.3594 51.4531 20.1042 51.4531 19.8125C51.4531 19.5469 51.3789 19.3307 51.2305 19.1641C51.082 18.9974 50.8867 18.862 50.6445 18.7578C50.4023 18.6536 50.1406 18.5625 49.8594 18.4844L48.875 18.2031C48.25 18.0234 47.7552 17.7669 47.3906 17.4336C47.026 17.1003 46.8438 16.6641 46.8438 16.125C46.8438 15.6771 46.9648 15.2865 47.207 14.9531C47.4518 14.6172 47.7799 14.3568 48.1914 14.1719C48.6055 13.9844 49.0677 13.8906 49.5781 13.8906C50.0938 13.8906 50.5521 13.9831 50.9531 14.168C51.3542 14.3503 51.6719 14.6003 51.9062 14.918C52.1432 15.2357 52.2682 15.5964 52.2813 16H51.3438ZM56.374 22.125C55.7959 22.125 55.2972 21.9974 54.8779 21.7422C54.4613 21.4844 54.1396 21.125 53.9131 20.6641C53.6891 20.2005 53.5771 19.6615 53.5771 19.0469C53.5771 18.4323 53.6891 17.8906 53.9131 17.4219C54.1396 16.9505 54.4548 16.5833 54.8584 16.3203C55.2646 16.0547 55.7386 15.9219 56.2803 15.9219C56.5928 15.9219 56.9014 15.974 57.2061 16.0781C57.5107 16.1823 57.7881 16.3516 58.0381 16.5859C58.2881 16.8177 58.4873 17.125 58.6357 17.5078C58.7842 17.8906 58.8584 18.362 58.8584 18.9219V19.3125H54.2334V18.5156H57.9209C57.9209 18.1771 57.8532 17.875 57.7178 17.6094C57.585 17.3437 57.3949 17.1341 57.1475 16.9805C56.9027 16.8268 56.6136 16.75 56.2803 16.75C55.9131 16.75 55.5954 16.8411 55.3271 17.0234C55.0615 17.2031 54.8571 17.4375 54.7139 17.7266C54.5706 18.0156 54.499 18.3255 54.499 18.6562V19.1875C54.499 19.6406 54.5771 20.0247 54.7334 20.3398C54.8923 20.6523 55.1123 20.8906 55.3936 21.0547C55.6748 21.2161 56.0016 21.2969 56.374 21.2969C56.6162 21.2969 56.835 21.263 57.0303 21.1953C57.2282 21.125 57.3988 21.0208 57.542 20.8828C57.6852 20.7422 57.7959 20.5677 57.874 20.3594L58.7646 20.6094C58.6709 20.9115 58.5133 21.1771 58.292 21.4062C58.0706 21.6328 57.7972 21.8099 57.4717 21.9375C57.1462 22.0625 56.7803 22.125 56.374 22.125ZM62.6982 22.125C62.1357 22.125 61.6514 21.9922 61.2451 21.7266C60.8389 21.4609 60.5264 21.0951 60.3076 20.6289C60.0889 20.1628 59.9795 19.6302 59.9795 19.0312C59.9795 18.4219 60.0915 17.8841 60.3154 17.418C60.542 16.9492 60.8571 16.5833 61.2607 16.3203C61.667 16.0547 62.141 15.9219 62.6826 15.9219C63.1045 15.9219 63.4847 16 63.8232 16.1562C64.1618 16.3125 64.4391 16.5312 64.6553 16.8125C64.8714 17.0937 65.0055 17.4219 65.0576 17.7969H64.1357C64.0654 17.5234 63.9092 17.2812 63.667 17.0703C63.4274 16.8568 63.1045 16.75 62.6982 16.75C62.3389 16.75 62.0238 16.8437 61.7529 17.0312C61.4847 17.2161 61.2751 17.4779 61.124 17.8164C60.9756 18.1523 60.9014 18.5469 60.9014 19C60.9014 19.4635 60.9743 19.8672 61.1201 20.2109C61.2686 20.5547 61.4769 20.8216 61.7451 21.0117C62.016 21.2018 62.3337 21.2969 62.6982 21.2969C62.9378 21.2969 63.1553 21.2552 63.3506 21.1719C63.5459 21.0885 63.7113 20.9688 63.8467 20.8125C63.9821 20.6562 64.0785 20.4687 64.1357 20.25H65.0576C65.0055 20.6042 64.8766 20.9232 64.6709 21.207C64.4678 21.4883 64.1982 21.7122 63.8623 21.8789C63.529 22.043 63.141 22.125 62.6982 22.125ZM69.0146 16V16.7812H65.9053V16H69.0146ZM66.8115 14.5625H67.7334V20.2812C67.7334 20.5417 67.7712 20.737 67.8467 20.8672C67.9248 20.9948 68.0238 21.0807 68.1436 21.125C68.266 21.1667 68.3949 21.1875 68.5303 21.1875C68.6318 21.1875 68.7152 21.1823 68.7803 21.1719C68.8454 21.1589 68.8975 21.1484 68.9365 21.1406L69.124 21.9687C69.0615 21.9922 68.9743 22.0156 68.8623 22.0391C68.7503 22.0651 68.6084 22.0781 68.4365 22.0781C68.1761 22.0781 67.9209 22.0221 67.6709 21.9102C67.4235 21.7982 67.2178 21.6276 67.0537 21.3984C66.8923 21.1693 66.8115 20.8802 66.8115 20.5312V14.5625ZM70.4014 22V16H71.3232V22H70.4014ZM70.8701 15C70.6904 15 70.5355 14.9388 70.4053 14.8164C70.2777 14.694 70.2139 14.5469 70.2139 14.375C70.2139 14.2031 70.2777 14.056 70.4053 13.9336C70.5355 13.8112 70.6904 13.75 70.8701 13.75C71.0498 13.75 71.2035 13.8112 71.3311 13.9336C71.4613 14.056 71.5264 14.2031 71.5264 14.375C71.5264 14.5469 71.4613 14.694 71.3311 14.8164C71.2035 14.9388 71.0498 15 70.8701 15ZM75.4492 22.125C74.9076 22.125 74.4323 21.9961 74.0234 21.7383C73.6172 21.4805 73.2995 21.1198 73.0703 20.6562C72.8438 20.1927 72.7305 19.651 72.7305 19.0312C72.7305 18.4062 72.8438 17.8607 73.0703 17.3945C73.2995 16.9284 73.6172 16.5664 74.0234 16.3086C74.4323 16.0508 74.9076 15.9219 75.4492 15.9219C75.9909 15.9219 76.4648 16.0508 76.8711 16.3086C77.2799 16.5664 77.5977 16.9284 77.8242 17.3945C78.0534 17.8607 78.168 18.4062 78.168 19.0312C78.168 19.651 78.0534 20.1927 77.8242 20.6562C77.5977 21.1198 77.2799 21.4805 76.8711 21.7383C76.4648 21.9961 75.9909 22.125 75.4492 22.125ZM75.4492 21.2969C75.8607 21.2969 76.1992 21.1914 76.4648 20.9805C76.7305 20.7695 76.9271 20.4922 77.0547 20.1484C77.1823 19.8047 77.2461 19.4323 77.2461 19.0312C77.2461 18.6302 77.1823 18.2565 77.0547 17.9102C76.9271 17.5638 76.7305 17.2839 76.4648 17.0703C76.1992 16.8568 75.8607 16.75 75.4492 16.75C75.0378 16.75 74.6992 16.8568 74.4336 17.0703C74.168 17.2839 73.9714 17.5638 73.8438 17.9102C73.7161 18.2565 73.6523 18.6302 73.6523 19.0312C73.6523 19.4323 73.7161 19.8047 73.8438 20.1484C73.9714 20.4922 74.168 20.7695 74.4336 20.9805C74.6992 21.1914 75.0378 21.2969 75.4492 21.2969ZM80.4971 18.3906V22H79.5752V16H80.4658V16.9375H80.5439C80.6846 16.6328 80.8981 16.388 81.1846 16.2031C81.471 16.0156 81.8408 15.9219 82.2939 15.9219C82.7002 15.9219 83.0557 16.0052 83.3604 16.1719C83.665 16.3359 83.902 16.5859 84.0713 16.9219C84.2406 17.2552 84.3252 17.6771 84.3252 18.1875V22H83.4033V18.25C83.4033 17.7786 83.2809 17.4115 83.0361 17.1484C82.7913 16.8828 82.4554 16.75 82.0283 16.75C81.734 16.75 81.471 16.8138 81.2393 16.9414C81.0101 17.069 80.8291 17.2552 80.6963 17.5C80.5635 17.7448 80.4971 18.0417 80.4971 18.3906ZM91.9004 14V22H90.9316V15.0156H90.8848L88.9316 16.3125V15.3281L90.9316 14H91.9004Z" fill="black"/>
</svg>
