<svg width="24" height="24" viewBox="0 0 24 24" fill="none" xmlns="http://www.w3.org/2000/svg">
<rect width="24" height="24" fill="#6750A4"/>
<mask id="mask0_1_38" style="mask-type:alpha" maskUnits="userSpaceOnUse" x="0" y="0" width="24" height="24">
<rect width="24" height="24" fill="#D9D9D9"/>
</mask>
<g mask="url(#mask0_1_38)">
<path d="M18.5 10.2998C17.9095 10.6657 17.1065 11.1689 16.2139 11.7451C14.3578 12.9432 12.1467 14.4349 10.6289 15.6621C9.70192 16.4116 8.88635 17.0852 8.19727 17.6592C9.50139 17.5319 11.0379 17.4219 12.5 17.4219C14.2952 17.4219 15.9571 17.5509 17.168 17.6797C17.7095 17.7373 18.163 17.7962 18.5 17.8428V19.8613C18.4507 19.854 18.3961 19.8462 18.3369 19.8379C18.0108 19.7919 17.5378 19.7307 16.957 19.6689C15.793 19.5451 14.2046 19.4219 12.5 19.4219C10.803 19.4219 8.96895 19.578 7.54785 19.7363C6.84028 19.8152 6.24048 19.8941 5.81836 19.9531C5.69701 19.9701 5.59023 19.985 5.5 19.998V17.3135C5.55854 17.2637 5.61897 17.2113 5.68164 17.1582C6.54621 16.4251 7.80214 15.375 9.37109 14.1064C10.9098 12.8623 13.0746 11.3983 14.8906 10.2207C13.9182 10.2808 12.8458 10.3252 11.75 10.3252C9.83201 10.3252 8.10849 10.1963 6.86523 10.0674C6.30583 10.0094 5.84229 9.9499 5.5 9.90332V7.88379C5.54987 7.89114 5.60482 7.90078 5.66504 7.90918C5.9946 7.95512 6.4759 8.01631 7.07227 8.07812C8.26647 8.2019 9.91823 8.3252 11.75 8.3252C13.5834 8.3252 15.3626 8.2017 16.6875 8.07715C17.3485 8.01501 17.8937 7.95265 18.2725 7.90625C18.3567 7.89593 18.4327 7.88552 18.5 7.87695V10.2998Z" fill="white"/>
<path d="M16.1543 3.51172L12 7.11133L7.8457 3.51172L9.1543 2L12 4.46484L14.8457 2L16.1543 3.51172Z" fill="white"/>
</g>
</svg>
